HIERARCHY
ROOT Hips
{
  OFFSET 55.4237 96.9124 12.0519
  CHANNELS 6 Xposition Yposition Zposition Zrotation Xrotation Yrotation
  JOINT spine
  {
    OFFSET 0 7.96568 0.458067
    CHANNELS 3 Zrotation Xrotation Yrotation
    JOINT spine1
    {
      OFFSET 0 10.2431 0
      CHANNELS 3 Zrotation Xrotation Yrotation
      JOINT spine2
      {
        OFFSET 0 9.81475 0
        CHANNELS 3 Zrotation Xrotation Yrotation
        JOINT Neck
        {
          OFFSET 0 25.1986 1.20138
          CHANNELS 3 Zrotation Xrotation Yrotation
          JOINT Head
          {
            OFFSET 0 7.61315 0
            CHANNELS 3 Zrotation Xrotation Yrotation
            End Site
            {
              OFFSET 0 18.4281 -6.07733
            }
          }
        }
        JOINT RightShoulder
        {
          OFFSET -4.1327 10.5992 -0.575451
          CHANNELS 3 Zrotation Xrotation Yrotation
          JOINT RightArm
          {
            OFFSET 0 13.9018 0
            CHANNELS 3 Zrotation Xrotation Yrotation
            JOINT RightArmRoll
            {
              OFFSET 0 7.01789 0
              CHANNELS 3 Zrotation Xrotation Yrotation
              JOINT RightForeArm
              {
                OFFSET 0 20.4406 0
                CHANNELS 3 Zrotation Xrotation Yrotation
                JOINT RightForeArmRoll
                {
                  OFFSET 0 7.87515 0
                  CHANNELS 3 Zrotation Xrotation Yrotation
                  JOINT RightHand
                  {
                    OFFSET 0 15.8037 0
                    CHANNELS 3 Zrotation Xrotation Yrotation
                    End Site
                    {
                      OFFSET 0 0 0
                    }
                  }
                }
              }
            }
          }
        }
        JOINT LeftShoulder
        {
          OFFSET 4.1327 10.5992 -0.575451
          CHANNELS 3 Zrotation Xrotation Yrotation
          JOINT LeftArm
          {
            OFFSET 0 13.9018 0
            CHANNELS 3 Zrotation Xrotation Yrotation
            JOINT LeftArmRoll
            {
              OFFSET 0 7.01789 0
              CHANNELS 3 Zrotation Xrotation Yrotation
              JOINT LeftForeArm
              {
                OFFSET 0 20.4406 0
                CHANNELS 3 Zrotation Xrotation Yrotation
                JOINT LeftForeArmRoll
                {
                  OFFSET 0 7.87515 0
                  CHANNELS 3 Zrotation Xrotation Yrotation
                  JOINT LeftHand
                  {
                    OFFSET 0 15.8037 0
                    CHANNELS 3 Zrotation Xrotation Yrotation
                    End Site
                    {
                      OFFSET 0 0 0
                    }
                  }
                }
              }
            }
          }
        }
      }
    }
  }
  JOINT RightUpLeg
  {
    OFFSET -7.06048 -1.2947 -1.0861
    CHANNELS 3 Zrotation Xrotation Yrotation
    JOINT RightUpLegRoll
    {
      OFFSET 0 18.5308 0
      CHANNELS 3 Zrotation Xrotation Yrotation
      JOINT RightLeg
      {
        OFFSET 0 -22.9476 0
        CHANNELS 3 Zrotation Xrotation Yrotation
        JOINT RightLegRoll
        {
          OFFSET 0 23.0226 0
          CHANNELS 3 Zrotation Xrotation Yrotation
          JOINT RightFoot
          {
            OFFSET 0 19.1625 0
            CHANNELS 3 Zrotation Xrotation Yrotation
            JOINT RightToeBase
            {
              OFFSET 0 16.0188 0
              CHANNELS 3 Zrotation Xrotation Yrotation
              End Site
              {
                OFFSET 0.00678979 7.75782 -0.894207
              }
            }
          }
        }
      }
    }
  }
  JOINT LeftUpLeg
  {
    OFFSET 7.06048 -1.2947 -1.0861
    CHANNELS 3 Zrotation Xrotation Yrotation
    JOINT LeftUpLegRoll
    {
      OFFSET 0 18.5309 0
      CHANNELS 3 Zrotation Xrotation Yrotation
      JOINT LeftLeg
      {
        OFFSET 0 22.9475 0
        CHANNELS 3 Zrotation Xrotation Yrotation
        JOINT LeftLegRoll
        {
          OFFSET 0 23.2355 0
          CHANNELS 3 Zrotation Xrotation Yrotation
          JOINT LeftFoot
          {
            OFFSET 0 18.9496 0
            CHANNELS 3 Zrotation Xrotation Yrotation
            JOINT LeftToeBase
            {
              OFFSET 0 16.0188 0
              CHANNELS 3 Zrotation Xrotation Yrotation
              End Site
              {
                OFFSET -0.0304289 7.75782 -0.894207
              }
            }
          }
        }
      }
    }
  }
}
MOTION
Frames: 5
Frame Time: 0.00208333
54.7469 96.9995 10.0634 1.10664 -4.95398 3.33449 0.0803585 -0.379773 -0.244995 0.167341 3.24292 -0.514117 0.173642 4.88796 -0.517509 -11.7263 11.6508 2.01808 7.21174 4.93391 -0.568329 70.6128 -3.68308 -3.17908 101.055 16.6699 14.3827 -1.23411e-005 2.64381e-006 3.3226e-006 3.07932 12.4983 -1.31222 3.64592e-006 -2.39968e-006 -3.00224 8.02988 -4.95138 0.697658 -66.4822 -1.06014 1.49164 -108.19 20.7473 -5.12773 -1.75139e-005 1.70996e-006 -1.34723e-006 -4.43207 2.63798 0.972733 4.80393e-006 -1.41137e-006 3.0052 -8.02966 -4.95142 -0.697647 176.158 -1.71319 3.71543 180 7.01537e-015 178.882 177.999 7.74293 179.696 4.22935e-006 -2.56211e-006 0.16402 -20.4713 69.9689 21.3525 8.13649 25.2327 -3.48774 -177.096 -5.7663 -0.568744 4.5067e-006 -1.99009e-005 -1.22354 -1.94368 -5.14044 0.03264 5.36346e-007 -3.52843e-006 -0.0450655 18.3287 67.4516 -19.0927 -8.1286 25.2331 3.48437 
54.7533 96.9941 10.0514 1.10063 -4.95602 3.31953 0.0811176 -0.379593 -0.244976 0.168524 3.24328 -0.513154 0.174838 4.88832 -0.516554 -11.7266 11.6723 2.02962 7.22971 4.91593 -0.556603 70.5688 -3.68915 -3.17886 101.12 16.607 14.4434 -1.23411e-005 2.64381e-006 3.3226e-006 3.02046 12.6172 -1.30864 3.64592e-006 -2.39968e-006 -3.00224 8.02988 -4.95138 0.697658 -66.497 -1.05688 1.49145 -108.13 20.6351 -5.16493 -1.75139e-005 1.70996e-006 -1.34723e-006 -4.45993 2.75869 0.978136 4.80393e-006 -1.41137e-006 3.0052 -8.02966 -4.95142 -0.697647 176.163 -1.71198 3.71544 180 7.01537e-015 178.882 177.994 7.74077 179.697 4.22935e-006 -2.56211e-006 0.16405 -20.4704 69.9681 21.3516 8.13649 25.2327 -3.48774 -177.09 -5.77409 -0.575434 4.5067e-006 -1.99009e-005 -1.22354 -1.94718 -5.13869 0.0323864 5.36346e-007 -3.52843e-006 -0.0450655 18.3289 67.4517 -19.0928 -8.1286 25.2331 3.48437 
54.7394 96.9975 10.0662 1.0946 -4.95805 3.30432 0.0818638 -0.379447 -0.244951 0.169686 3.24357 -0.512142 0.176013 4.88861 -0.51555 -11.7268 11.6941 2.04118 7.24663 4.89817 -0.54493 70.525 -3.69496 -3.17851 101.185 16.5425 14.5027 -1.23411e-005 2.64381e-006 3.3226e-006 2.96304 12.7381 -1.30542 3.64592e-006 -2.39968e-006 -3.00224 8.02988 -4.95138 0.697658 -66.5112 -1.05283 1.49079 -108.071 20.5212 -5.20116 -1.75139e-005 1.70996e-006 -1.34723e-006 -4.48923 2.87971 0.983545 4.80393e-006 -1.41137e-006 3.0052 -8.02966 -4.95142 -0.697647 176.168 -1.71051 3.71556 180 7.01537e-015 178.882 177.988 7.73903 179.697 4.22935e-006 -2.56211e-006 0.164093 -20.4698 69.9675 21.3509 8.13649 25.2327 -3.48774 -177.084 -5.78195 -0.582216 4.5067e-006 -1.99009e-005 -1.22354 -1.95078 -5.13697 0.0321222 5.36346e-007 -3.52843e-006 -0.0450655 18.329 67.4519 -19.0929 -8.1286 25.2331 3.48437 
54.7383 97.0003 10.0608 1.08857 -4.96008 3.28895 0.0826011 -0.379325 -0.24492 0.170832 3.24381 -0.511095 0.177174 4.88885 -0.51451 -11.7269 11.7161 2.05278 7.26282 4.88056 -0.533294 70.4814 -3.70057 -3.17808 101.249 16.4771 14.5609 -1.23411e-005 2.64381e-006 3.3226e-006 2.90664 12.8605 -1.30247 3.64592e-006 -2.39968e-006 -3.00224 8.02988 -4.95138 0.697658 -66.5248 -1.04823 1.4898 -108.013 20.4061 -5.23671 -1.75139e-005 1.70996e-006 -1.34723e-006 -4.51955 3.00095 0.988959 4.80393e-006 -1.41137e-006 3.0052 -8.02966 -4.95142 -0.697647 176.173 -1.70886 3.71575 180 7.01537e-015 178.882 177.983 7.73761 179.698 4.22935e-006 -2.56211e-006 0.164147 -20.4694 69.9671 21.3505 8.13649 25.2327 -3.48774 -177.077 -5.78986 -0.589063 4.5067e-006 -1.99009e-005 -1.22354 -1.95447 -5.13527 0.0318505 5.36346e-007 -3.52843e-006 -0.0450655 18.3291 67.452 -19.0931 -8.1286 25.2331 3.48437 
54.7493 96.9947 10.0646 1.08253 -4.96211 3.27348 0.0833333 -0.379217 -0.244887 0.171969 3.24402 -0.510029 0.178326 4.88906 -0.513451 -11.7269 11.7382 2.06438 7.27859 4.86303 -0.52168 70.4378 -3.70608 -3.17759 101.314 16.411 14.6186 -1.23411e-005 2.64381e-006 3.3226e-006 2.85082 12.9837 -1.29966 3.64592e-006 -2.39968e-006 -3.00224 8.02988 -4.95138 0.697658 -66.5382 -1.04332 1.48861 -107.955 20.2903 -5.27185 -1.75139e-005 1.70996e-006 -1.34723e-006 -4.55045 3.12231 0.994379 4.80393e-006 -1.41137e-006 3.0052 -8.02966 -4.95142 -0.697647 176.179 -1.7071 3.71599 180 7.01537e-015 178.882 177.977 7.73637 179.698 4.22935e-006 -2.56211e-006 0.164206 -20.4691 69.9668 21.3502 8.13649 25.2327 -3.48774 -177.071 -5.7978 -0.595947 4.5067e-006 -1.99009e-005 -1.22354 -1.95819 -5.13358 0.0315745 5.36346e-007 -3.52843e-006 -0.0450655 18.3292 67.4521 -19.0932 -8.1286 25.2331 3.48437 
